<svg width="96" height="96" viewBox="0 0 96 96" fill="none" xmlns="http://www.w3.org/2000/svg">
<path d="M12 16H68V32H80L92 48V68H84C84 71.1826 82.7357 74.2348 80.4853 76.4853C78.2348 78.7357 75.1826 80 72 80C68.8174 80 65.7652 78.7357 63.5147 76.4853C61.2643 74.2348 60 71.1826 60 68H36C36 71.1826 34.7357 74.2348 32.4853 76.4853C30.2348 78.7357 27.1826 80 24 80C20.8174 80 17.7652 78.7357 15.5147 76.4853C13.2643 74.2348 12 71.1826 12 68H4V24C4 21.8783 4.84285 19.8434 6.34315 18.3431C7.84344 16.8429 9.87827 16 12 16ZM68 38V48H85.88L78 38H68ZM24 62C22.4087 62 20.8826 62.6321 19.7574 63.7574C18.6321 64.8826 18 66.4087 18 68C18 69.5913 18.6321 71.1174 19.7574 72.2426C20.8826 73.3679 22.4087 74 24 74C25.5913 74 27.1174 73.3679 28.2426 72.2426C29.3679 71.1174 30 69.5913 30 68C30 66.4087 29.3679 64.8826 28.2426 63.7574C27.1174 62.6321 25.5913 62 24 62ZM72 62C70.4087 62 68.8826 62.6321 67.7574 63.7574C66.6321 64.8826 66 66.4087 66 68C66 69.5913 66.6321 71.1174 67.7574 72.2426C68.8826 73.3679 70.4087 74 72 74C73.5913 74 75.1174 73.3679 76.2426 72.2426C77.3679 71.1174 78 69.5913 78 68C78 66.4087 77.3679 64.8826 76.2426 63.7574C75.1174 62.6321 73.5913 62 72 62ZM32 56L56 32L50.36 26.32L32 44.68L23.64 36.32L18 42L32 56Z" fill="#FD4E4E"/>
</svg>
