<svg width="96" height="96" viewBox="0 0 96 96" fill="none" xmlns="http://www.w3.org/2000/svg">
<path d="M12 54L9 48H30L27.6 42H8L5 36H36.2L33.8 30H4.44L1 24H16C16 21.8783 16.8429 19.8434 18.3431 18.3431C19.8434 16.8429 21.8783 16 24 16H72V32H84L96 48V68H88C88 71.1826 86.7357 74.2348 84.4853 76.4853C82.2348 78.7357 79.1826 80 76 80C72.8174 80 69.7652 78.7357 67.5147 76.4853C65.2643 74.2348 64 71.1826 64 68H48C48 71.1826 46.7357 74.2348 44.4853 76.4853C42.2348 78.7357 39.1826 80 36 80C32.8174 80 29.7652 78.7357 27.5147 76.4853C25.2643 74.2348 24 71.1826 24 68H16V54H12ZM76 74C77.5913 74 79.1174 73.3679 80.2426 72.2426C81.3679 71.1174 82 69.5913 82 68C82 66.4087 81.3679 64.8826 80.2426 63.7574C79.1174 62.6321 77.5913 62 76 62C74.4087 62 72.8826 62.6321 71.7574 63.7574C70.6321 64.8826 70 66.4087 70 68C70 69.5913 70.6321 71.1174 71.7574 72.2426C72.8826 73.3679 74.4087 74 76 74ZM82 38H72V48H89.84L82 38ZM36 74C37.5913 74 39.1174 73.3679 40.2426 72.2426C41.3679 71.1174 42 69.5913 42 68C42 66.4087 41.3679 64.8826 40.2426 63.7574C39.1174 62.6321 37.5913 62 36 62C34.4087 62 32.8826 62.6321 31.7574 63.7574C30.6321 64.8826 30 66.4087 30 68C30 69.5913 30.6321 71.1174 31.7574 72.2426C32.8826 73.3679 34.4087 74 36 74Z" fill="#FD4E4E"/>
</svg>
