<svg width="88" height="72" viewBox="0 0 88 72" fill="none" xmlns="http://www.w3.org/2000/svg">
<path d="M8.00001 64C5.80001 64 3.91601 63.216 2.34801 61.648C0.780006 60.08 -0.00265988 58.1973 6.79117e-06 56V8.00001C6.79117e-06 5.80001 0.784007 3.91601 2.35201 2.34801C3.92001 0.780006 5.80267 -0.00265988 8.00001 6.79117e-06H72C74.2 6.79117e-06 76.084 0.784006 77.652 2.35201C79.22 3.92001 80.0027 5.80267 80 8.00001V32H8.00001V56H44C45.1333 56 46.084 56.384 46.852 57.152C47.62 57.92 48.0027 58.8693 48 60C48 61.1333 47.616 62.084 46.848 62.852C46.08 63.62 45.1307 64.0027 44 64H8.00001ZM8.00001 16H72V8.00001H8.00001V16ZM72 72C70.8667 72 69.916 71.616 69.148 70.848C68.38 70.08 67.9973 69.1307 68 68V60H60C58.8667 60 57.916 59.616 57.148 58.848C56.38 58.08 55.9973 57.1307 56 56C56 54.8667 56.384 53.916 57.152 53.148C57.92 52.38 58.8693 51.9973 60 52H68V44C68 42.8667 68.384 41.916 69.152 41.148C69.92 40.38 70.8693 39.9973 72 40C73.1333 40 74.084 40.384 74.852 41.152C75.62 41.92 76.0027 42.8693 76 44V52H84C85.1333 52 86.084 52.384 86.852 53.152C87.62 53.92 88.0027 54.8693 88 56C88 57.1333 87.616 58.084 86.848 58.852C86.08 59.62 85.1307 60.0027 84 60H76V68C76 69.1333 75.616 70.084 74.848 70.852C74.08 71.62 73.1307 72.0027 72 72Z" fill="#FD4E4E"/>
</svg>
